<svg xmlns="http://www.w3.org/2000/svg" xmlns:xlink="http://www.w3.org/1999/xlink" width="500" zoomAndPan="magnify" viewBox="0 0 375 374.999991" height="500" preserveAspectRatio="xMidYMid meet" version="1.2"><defs><clipPath id="50eff2d5a5"><path d="M 37.5 122 L 253 122 L 253 304.875 L 37.5 304.875 Z M 37.5 122 "/></clipPath><clipPath id="1074e28415"><path d="M 37.5 70.125 L 337.5 70.125 L 337.5 196 L 37.5 196 Z M 37.5 70.125 "/></clipPath><clipPath id="4ef404b3e6"><path d="M 252 139 L 337.5 139 L 337.5 304.875 L 252 304.875 Z M 252 139 "/></clipPath></defs><g id="4e7be6f647"><g clip-rule="nonzero" clip-path="url(#50eff2d5a5)"><path style=" stroke:none;fill-rule:nonzero;fill:#c45027;fill-opacity:1;" d="M 37.691406 122.347656 L 252.683594 195.109375 L 252.683594 304.867188 L 37.691406 229.851562 Z M 37.691406 122.347656 "/></g><g clip-rule="nonzero" clip-path="url(#1074e28415)"><path style=" stroke:none;fill-rule:nonzero;fill:#ee925d;fill-opacity:1;" d="M 337.316406 139.984375 L 252.683594 195.109375 L 37.691406 122.347656 L 132.542969 70.132812 Z M 337.316406 139.984375 "/></g><g clip-rule="nonzero" clip-path="url(#4ef404b3e6)"><path style=" stroke:none;fill-rule:nonzero;fill:#e37240;fill-opacity:1;" d="M 252.683594 304.867188 L 252.683594 195.109375 L 337.316406 139.984375 L 334.109375 246.292969 Z M 252.683594 304.867188 "/></g><path style=" stroke:none;fill-rule:nonzero;fill:#c25228;fill-opacity:1;" d="M 135.421875 86.046875 L 81.496094 117.578125 L 154.953125 142.734375 L 206.339844 109.339844 Z M 135.421875 86.046875 "/><path style=" stroke:none;fill-rule:nonzero;fill:#d55e31;fill-opacity:1;" d="M 135.421875 86.046875 L 154.953125 142.734375 L 206.339844 109.339844 Z M 135.421875 86.046875 "/><path style=" stroke:none;fill-rule:nonzero;fill:#c25228;fill-opacity:1;" d="M 226.84375 119.179688 L 172.917969 150.707031 L 246.371094 175.867188 L 297.761719 142.46875 Z M 226.84375 119.179688 "/><path style=" stroke:none;fill-rule:nonzero;fill:#d55e31;fill-opacity:1;" d="M 226.84375 119.179688 L 246.371094 175.867188 L 297.761719 142.46875 Z M 226.84375 119.179688 "/></g></svg>