<svg xmlns="http://www.w3.org/2000/svg" xmlns:xlink="http://www.w3.org/1999/xlink" width="500" zoomAndPan="magnify" viewBox="0 0 375 374.999991" height="500" preserveAspectRatio="xMidYMid meet" version="1.2"><defs><clipPath id="c10531cead"><path d="M 111.1875 37.5 L 219 37.5 L 219 131 L 111.1875 131 Z M 111.1875 37.5 "/></clipPath><clipPath id="68157aa8f4"><path d="M 111.1875 124 L 124 124 L 124 316 L 111.1875 316 Z M 111.1875 124 "/></clipPath><clipPath id="3a72e0e80f"><path d="M 251.523438 65.480469 L 264.179688 65.480469 L 264.179688 251 L 251.523438 251 Z M 251.523438 65.480469 "/></clipPath><clipPath id="5e257a1f88"><path d="M 156.929688 59.582031 L 264.179688 59.582031 L 264.179688 152.394531 L 156.929688 152.394531 Z M 156.929688 59.582031 "/></clipPath><clipPath id="2238e47841"><path d="M 169.375 244.894531 L 264.179688 244.894531 L 264.179688 337.457031 L 169.375 337.457031 Z M 169.375 244.894531 "/></clipPath><clipPath id="444bb66a01"><path d="M 156.929688 146.183594 L 169.6875 146.183594 L 169.6875 337.457031 L 156.929688 337.457031 Z M 156.929688 146.183594 "/></clipPath></defs><g id="abd54a4936"><path style=" stroke:none;fill-rule:nonzero;fill:#66ccff;fill-opacity:1;" d="M 205.835938 54.972656 L 218.394531 43.492188 L 218.394531 228.695312 L 205.835938 222.75 L 205.835938 54.972656 "/><path style=" stroke:none;fill-rule:nonzero;fill:#8fdaff;fill-opacity:1;" d="M 123.746094 130.023438 L 123.746094 297.800781 L 205.839844 222.75 L 205.839844 54.972656 L 172.710938 85.261719 L 160.152344 96.738281 L 123.746094 130.023438 "/><g clip-rule="nonzero" clip-path="url(#c10531cead)"><path style=" stroke:none;fill-rule:nonzero;fill:#dcf3ff;fill-opacity:1;" d="M 205.835938 37.546875 L 218.394531 43.492188 L 205.835938 54.972656 L 123.746094 130.019531 L 111.1875 124.074219 L 205.835938 37.546875 "/></g><path style=" stroke:none;fill-rule:nonzero;fill:#dcf3ff;fill-opacity:1;" d="M 205.835938 222.75 L 218.394531 228.695312 L 123.746094 315.226562 L 123.746094 297.796875 L 205.835938 222.75 "/><g clip-rule="nonzero" clip-path="url(#68157aa8f4)"><path style=" stroke:none;fill-rule:nonzero;fill:#52c7ef;fill-opacity:1;" d="M 123.746094 130.019531 L 123.746094 315.226562 L 111.1875 309.277344 L 111.1875 124.074219 L 123.746094 130.019531 "/></g><g clip-rule="nonzero" clip-path="url(#3a72e0e80f)"><path style=" stroke:none;fill-rule:nonzero;fill:#66ccff;fill-opacity:1;" d="M 251.625 77.207031 L 264.183594 65.726562 L 264.183594 250.929688 L 251.625 244.984375 L 251.625 77.207031 "/></g><path style=" stroke:none;fill-rule:nonzero;fill:#8fdaff;fill-opacity:1;" d="M 169.53125 152.257812 L 169.53125 320.03125 L 251.621094 244.984375 L 251.621094 77.207031 L 218.394531 107.585938 L 205.839844 119.0625 L 169.53125 152.257812 "/><g clip-rule="nonzero" clip-path="url(#5e257a1f88)"><path style=" stroke:none;fill-rule:nonzero;fill:#dcf3ff;fill-opacity:1;" d="M 251.625 59.78125 L 264.183594 65.726562 L 251.625 77.207031 L 169.53125 152.253906 L 156.972656 146.308594 L 251.625 59.78125 "/></g><g clip-rule="nonzero" clip-path="url(#2238e47841)"><path style=" stroke:none;fill-rule:nonzero;fill:#dcf3ff;fill-opacity:1;" d="M 251.625 244.984375 L 264.183594 250.929688 L 169.53125 337.457031 L 169.53125 320.03125 L 251.625 244.984375 "/></g><g clip-rule="nonzero" clip-path="url(#444bb66a01)"><path style=" stroke:none;fill-rule:nonzero;fill:#52c7ef;fill-opacity:1;" d="M 169.53125 152.253906 L 169.53125 337.457031 L 156.972656 331.511719 L 156.972656 146.308594 L 169.53125 152.253906 "/></g><path style=" stroke:none;fill-rule:nonzero;fill:#42aeea;fill-opacity:1;" d="M 205.839844 119.0625 L 205.839844 222.75 L 218.394531 228.691406 L 218.394531 107.585938 L 205.839844 119.0625 "/><path style=" stroke:none;fill-rule:nonzero;fill:#8fdaff;fill-opacity:1;" d="M 169.53125 152.257812 L 169.53125 255.945312 L 205.839844 222.75 L 205.839844 119.0625 L 169.53125 152.257812 "/><path style=" stroke:none;fill-rule:nonzero;fill:#b0e9ff;fill-opacity:1;" d="M 169.53125 255.945312 L 169.53125 273.371094 L 218.394531 228.691406 L 205.839844 222.75 L 169.53125 255.945312 "/></g></svg>