<svg xmlns="http://www.w3.org/2000/svg" xmlns:xlink="http://www.w3.org/1999/xlink" width="500" zoomAndPan="magnify" viewBox="0 0 375 374.999991" height="500" preserveAspectRatio="xMidYMid meet" version="1.2"><defs><clipPath id="961efd5129"><path d="M 58 56 L 337.5 56 L 337.5 314 L 58 314 Z M 58 56 "/></clipPath><clipPath id="c11b073370"><path d="M 125 148 L 337.5 148 L 337.5 314 L 125 314 Z M 125 148 "/></clipPath><clipPath id="ae619777a7"><path d="M 37.761719 154.691406 L 166.871094 154.691406 L 166.871094 320.992188 L 37.761719 320.992188 Z M 37.761719 154.691406 "/></clipPath><clipPath id="f2d27e3a3b"><path d="M 55.066406 176.652344 L 152.226562 176.652344 L 152.226562 320.992188 L 55.066406 320.992188 Z M 55.066406 176.652344 "/></clipPath></defs><g id="457abbc01e"><path style=" stroke:none;fill-rule:nonzero;fill:#ffde59;fill-opacity:1;" d="M 322.996094 214.847656 C 320.183594 217.277344 316.945312 219.136719 313.421875 220.375 L 322.996094 214.847656 "/><g clip-rule="nonzero" clip-path="url(#961efd5129)"><path style=" stroke:none;fill-rule:nonzero;fill:#ffde59;fill-opacity:1;" d="M 337.238281 176.453125 C 337.238281 194.082031 331.902344 207.277344 322.996094 214.847656 L 313.421875 220.375 L 152.21875 313.457031 L 125.351562 268.628906 L 58.898438 157.875 L 224.578125 62.316406 L 230.390625 58.984375 C 241.726562 53.980469 256.589844 55.554688 272.882812 64.984375 C 300.652344 80.992188 324.328125 115.003906 333.332031 148.683594 C 335.859375 158.113281 337.238281 167.5 337.238281 176.453125 "/></g><g clip-rule="nonzero" clip-path="url(#c11b073370)"><path style=" stroke:none;fill-rule:nonzero;fill:#ff914d;fill-opacity:1;" d="M 152.21875 313.457031 L 125.351562 268.628906 L 333.332031 148.683594 C 335.859375 158.113281 337.238281 167.5 337.238281 176.453125 C 337.238281 194.082031 331.902344 207.277344 322.996094 214.847656 L 313.421875 220.375 L 152.21875 313.457031 "/></g><g clip-rule="nonzero" clip-path="url(#ae619777a7)"><path style=" stroke:none;fill-rule:nonzero;fill:#ffbd59;fill-opacity:1;" d="M 166.484375 275.054688 C 166.484375 292.710938 161.152344 305.875 152.207031 313.441406 C 147.867188 317.179688 142.636719 319.597656 136.761719 320.527344 C 126.777344 322.152344 114.863281 319.566406 102.125 312.210938 C 66.574219 291.6875 37.761719 241.78125 37.761719 200.734375 C 37.761719 159.71875 66.574219 143.054688 102.125 163.578125 C 137.648438 184.085938 166.484375 234.035156 166.484375 275.054688 "/></g><g clip-rule="nonzero" clip-path="url(#f2d27e3a3b)"><path style=" stroke:none;fill-rule:nonzero;fill:#ff914d;fill-opacity:1;" d="M 152.207031 313.441406 C 147.867188 317.179688 142.636719 319.597656 136.761719 320.527344 C 130.132812 319.191406 123.214844 316.492188 116.269531 312.484375 C 101.34375 303.863281 86.339844 289.316406 74.117188 270.21875 C 63.402344 253.523438 56.898438 235.054688 55.78125 218.257812 C 54.664062 201.457031 59.085938 188.304688 68.1875 181.21875 C 83.425781 169.359375 110.339844 182.4375 128.230469 210.332031 C 135.253906 221.320312 139.542969 233.46875 140.273438 244.515625 C 141 255.566406 138.113281 264.226562 132.105469 268.867188 C 122.042969 276.71875 104.203125 268.070312 92.371094 249.589844 C 87.691406 242.296875 84.832031 234.183594 84.335938 226.816406 C 83.84375 219.414062 85.792969 213.664062 89.773438 210.554688 C 96.558594 205.257812 108.574219 211.082031 116.53125 223.511719 C 119.726562 228.511719 121.679688 234.023438 121.988281 239.035156 C 122.328125 244.066406 121.027344 248 118.296875 250.113281 C 113.617188 253.75 105.347656 249.726562 99.863281 241.152344 C 97.625 237.671875 96.269531 233.824219 96.039062 230.296875 C 95.804688 226.800781 96.714844 224.054688 98.613281 222.5625 C 99.550781 221.84375 101.1875 222.609375 102.277344 224.351562 C 103.371094 226.035156 103.5 228 102.589844 228.734375 C 101.578125 229.53125 101.082031 230.957031 101.214844 232.808594 C 101.34375 234.679688 102.046875 236.707031 103.242188 238.539062 C 104.828125 241.046875 106.882812 242.984375 108.960938 243.976562 C 111.070312 245.011719 112.964844 244.996094 114.34375 243.929688 C 118.089844 240.988281 117.570312 233.03125 113.148438 226.152344 C 107.378906 217.117188 98.664062 212.898438 93.722656 216.710938 C 87.351562 221.710938 88.234375 235.253906 95.75 246.976562 C 100.433594 254.273438 106.359375 259.917969 112.5 262.890625 C 118.609375 265.878906 124.175781 265.789062 128.152344 262.710938 C 133.25 258.75 135.722656 251.40625 135.097656 242.007812 C 134.472656 232.613281 130.832031 222.28125 124.851562 212.941406 C 109.171875 188.457031 85.507812 176.984375 72.140625 187.375 C 63.949219 193.785156 59.96875 205.628906 60.984375 220.777344 C 61.972656 235.914062 67.851562 252.546875 77.472656 267.589844 C 99.160156 301.429688 130.3125 319.746094 152.207031 313.441406 "/></g></g></svg>