<svg xmlns="http://www.w3.org/2000/svg" xmlns:xlink="http://www.w3.org/1999/xlink" width="500" zoomAndPan="magnify" viewBox="0 0 375 374.999991" height="500" preserveAspectRatio="xMidYMid meet" version="1.2"><defs><clipPath id="125931d3dd"><path d="M 162 112.5 L 188 112.5 L 188 125 L 162 125 Z M 162 112.5 "/></clipPath><clipPath id="f5f0666455"><path d="M 137 112.5 L 238 112.5 L 238 163 L 137 163 Z M 137 112.5 "/></clipPath><clipPath id="84c8825255"><path d="M 37.5 162 L 138 162 L 138 213 L 37.5 213 Z M 37.5 162 "/></clipPath><clipPath id="4d24100dfe"><path d="M 37.5 186 L 90 186 L 90 213 L 37.5 213 Z M 37.5 186 "/></clipPath><clipPath id="69b66d7c45"><path d="M 237 162 L 337.5 162 L 337.5 213 L 237 213 Z M 237 162 "/></clipPath><clipPath id="9553f355d9"><path d="M 137 212 L 238 212 L 238 262.5 L 137 262.5 Z M 137 212 "/></clipPath><clipPath id="f28925ed00"><path d="M 137 236 L 190 236 L 190 262.5 L 137 262.5 Z M 137 236 "/></clipPath><clipPath id="0071516903"><path d="M 185 248 L 213 248 L 213 262.5 L 185 262.5 Z M 185 248 "/></clipPath></defs><g id="95430cb4d5"><g clip-rule="nonzero" clip-path="url(#125931d3dd)"><path style=" stroke:none;fill-rule:nonzero;fill:#000000;fill-opacity:1;" d="M 187.300781 112.5 L 162.335938 124.980469 "/></g><g clip-rule="nonzero" clip-path="url(#f5f0666455)"><path style=" stroke:none;fill-rule:nonzero;fill:#cb6ce6;fill-opacity:1;" d="M 187.300781 112.5 L 137.375 137.457031 L 187.769531 162.65625 L 237.695312 137.695312 Z M 187.300781 112.5 "/></g><path style=" stroke:none;fill-rule:nonzero;fill:#000000;fill-opacity:1;" d="M 164.1875 124.03125 L 214.105469 148.988281 L 212.234375 149.925781 L 162.308594 124.964844 L 164.191406 124.03125 Z M 164.1875 124.03125 "/><path style=" stroke:none;fill-rule:nonzero;fill:#000000;fill-opacity:1;" d="M 139.230469 136.511719 L 189.148438 161.46875 L 187.277344 162.402344 L 137.347656 137.445312 Z M 139.230469 136.511719 "/><path style=" stroke:none;fill-rule:nonzero;fill:#000000;fill-opacity:1;" d="M 187.300781 137.457031 L 212.253906 124.980469 L 210.382812 124.042969 L 185.417969 136.523438 Z M 187.300781 137.457031 "/><path style=" stroke:none;fill-rule:nonzero;fill:#000000;fill-opacity:1;" d="M 187.300781 162.417969 L 212.253906 149.9375 L 210.382812 149 L 185.417969 161.480469 Z M 187.300781 162.417969 "/><path style=" stroke:none;fill-rule:nonzero;fill:#ffffff;fill-opacity:1;" d="M 187.300781 135.460938 L 210.542969 123.863281 L 208.671875 122.929688 L 185.417969 134.527344 Z M 187.300781 135.460938 "/><path style=" stroke:none;fill-rule:nonzero;fill:#ffffff;fill-opacity:1;" d="M 187.300781 160.421875 L 210.542969 148.824219 L 208.671875 147.886719 L 185.417969 159.484375 Z M 187.300781 160.421875 "/><path style=" stroke:none;fill-rule:nonzero;fill:#000000;fill-opacity:1;" d="M 137.382812 137.457031 L 112.417969 149.9375 "/><path style=" stroke:none;fill-rule:nonzero;fill:#cb6ce6;fill-opacity:1;" d="M 137.382812 137.457031 L 87.457031 162.417969 L 137.851562 187.613281 L 187.78125 162.65625 Z M 137.382812 137.457031 "/><path style=" stroke:none;fill-rule:nonzero;fill:#000000;fill-opacity:1;" d="M 114.273438 148.988281 L 164.1875 173.949219 L 162.316406 174.882812 L 112.390625 149.925781 Z M 114.273438 148.988281 "/><path style=" stroke:none;fill-rule:nonzero;fill:#000000;fill-opacity:1;" d="M 89.3125 161.46875 L 139.230469 186.425781 L 137.359375 187.363281 L 87.433594 162.40625 L 89.316406 161.46875 Z M 89.3125 161.46875 "/><path style=" stroke:none;fill-rule:nonzero;fill:#000000;fill-opacity:1;" d="M 137.382812 162.417969 L 162.335938 149.9375 L 160.464844 149 L 135.5 161.480469 Z M 137.382812 162.417969 "/><path style=" stroke:none;fill-rule:nonzero;fill:#000000;fill-opacity:1;" d="M 137.382812 187.375 L 162.335938 174.894531 L 160.464844 173.960938 L 135.5 186.4375 Z M 137.382812 187.375 "/><path style=" stroke:none;fill-rule:nonzero;fill:#ffffff;fill-opacity:1;" d="M 137.382812 160.421875 L 160.625 148.824219 L 158.753906 147.886719 L 135.5 159.484375 Z M 137.382812 160.421875 "/><path style=" stroke:none;fill-rule:nonzero;fill:#ffffff;fill-opacity:1;" d="M 137.382812 185.378906 L 160.625 173.78125 L 158.753906 172.847656 L 135.5 184.441406 Z M 137.382812 185.378906 "/><path style=" stroke:none;fill-rule:nonzero;fill:#000000;fill-opacity:1;" d="M 87.441406 162.417969 L 62.476562 174.894531 "/><g clip-rule="nonzero" clip-path="url(#84c8825255)"><path style=" stroke:none;fill-rule:nonzero;fill:#cb6ce6;fill-opacity:1;" d="M 87.441406 162.417969 L 37.515625 187.375 L 87.910156 212.570312 L 137.835938 187.613281 Z M 87.441406 162.417969 "/></g><path style=" stroke:none;fill-rule:nonzero;fill:#000000;fill-opacity:1;" d="M 64.332031 173.949219 L 114.246094 198.90625 L 112.375 199.84375 L 62.449219 174.882812 Z M 64.332031 173.949219 "/><g clip-rule="nonzero" clip-path="url(#4d24100dfe)"><path style=" stroke:none;fill-rule:nonzero;fill:#000000;fill-opacity:1;" d="M 39.371094 186.425781 L 89.289062 211.386719 L 87.417969 212.320312 L 37.488281 187.363281 Z M 39.371094 186.425781 "/></g><path style=" stroke:none;fill-rule:nonzero;fill:#000000;fill-opacity:1;" d="M 87.441406 187.375 L 112.394531 174.894531 L 110.523438 173.960938 L 85.558594 186.4375 Z M 87.441406 187.375 "/><path style=" stroke:none;fill-rule:nonzero;fill:#000000;fill-opacity:1;" d="M 87.441406 212.332031 L 112.394531 199.855469 L 110.523438 198.917969 L 85.558594 211.398438 Z M 87.441406 212.332031 "/><path style=" stroke:none;fill-rule:nonzero;fill:#ffffff;fill-opacity:1;" d="M 87.441406 185.378906 L 110.683594 173.78125 L 108.8125 172.847656 L 85.558594 184.441406 Z M 87.441406 185.378906 "/><path style=" stroke:none;fill-rule:nonzero;fill:#ffffff;fill-opacity:1;" d="M 87.441406 210.335938 L 110.683594 198.742188 L 108.8125 197.804688 L 85.558594 209.402344 Z M 87.441406 210.335938 "/><path style=" stroke:none;fill-rule:nonzero;fill:#000000;fill-opacity:1;" d="M 237.242188 137.457031 L 212.277344 149.9375 "/><path style=" stroke:none;fill-rule:nonzero;fill:#cb6ce6;fill-opacity:1;" d="M 237.242188 137.457031 L 187.316406 162.417969 L 237.710938 187.613281 L 287.636719 162.65625 Z M 237.242188 137.457031 "/><path style=" stroke:none;fill-rule:nonzero;fill:#000000;fill-opacity:1;" d="M 214.128906 148.988281 L 264.046875 173.949219 L 262.175781 174.882812 L 212.25 149.925781 L 214.132812 148.988281 Z M 214.128906 148.988281 "/><path style=" stroke:none;fill-rule:nonzero;fill:#000000;fill-opacity:1;" d="M 189.171875 161.46875 L 239.089844 186.425781 L 237.21875 187.363281 L 187.289062 162.40625 Z M 189.171875 161.46875 "/><path style=" stroke:none;fill-rule:nonzero;fill:#000000;fill-opacity:1;" d="M 237.242188 162.417969 L 262.195312 149.9375 L 260.324219 149 L 235.359375 161.480469 Z M 237.242188 162.417969 "/><path style=" stroke:none;fill-rule:nonzero;fill:#000000;fill-opacity:1;" d="M 237.242188 187.375 L 262.195312 174.894531 L 260.324219 173.960938 L 235.359375 186.4375 Z M 237.242188 187.375 "/><path style=" stroke:none;fill-rule:nonzero;fill:#ffffff;fill-opacity:1;" d="M 237.242188 160.421875 L 260.484375 148.824219 L 258.613281 147.886719 L 235.359375 159.484375 Z M 237.242188 160.421875 "/><path style=" stroke:none;fill-rule:nonzero;fill:#ffffff;fill-opacity:1;" d="M 237.242188 185.378906 L 260.484375 173.78125 L 258.613281 172.847656 L 235.359375 184.441406 Z M 237.242188 185.378906 "/><path style=" stroke:none;fill-rule:nonzero;fill:#000000;fill-opacity:1;" d="M 187.300781 162.417969 L 162.335938 174.894531 "/><path style=" stroke:none;fill-rule:nonzero;fill:#cb6ce6;fill-opacity:1;" d="M 187.300781 162.417969 L 137.375 187.375 L 187.769531 212.570312 L 237.695312 187.613281 Z M 187.300781 162.417969 "/><path style=" stroke:none;fill-rule:nonzero;fill:#000000;fill-opacity:1;" d="M 164.1875 173.949219 L 214.105469 198.90625 L 212.234375 199.84375 L 162.308594 174.882812 L 164.191406 173.949219 Z M 164.1875 173.949219 "/><path style=" stroke:none;fill-rule:nonzero;fill:#000000;fill-opacity:1;" d="M 139.230469 186.425781 L 189.148438 211.386719 L 187.277344 212.320312 L 137.347656 187.363281 Z M 139.230469 186.425781 "/><path style=" stroke:none;fill-rule:nonzero;fill:#000000;fill-opacity:1;" d="M 187.300781 187.375 L 212.253906 174.894531 L 210.382812 173.960938 L 185.417969 186.4375 Z M 187.300781 187.375 "/><path style=" stroke:none;fill-rule:nonzero;fill:#000000;fill-opacity:1;" d="M 187.300781 212.332031 L 212.253906 199.855469 L 210.382812 198.917969 L 185.417969 211.398438 Z M 187.300781 212.332031 "/><path style=" stroke:none;fill-rule:nonzero;fill:#ffffff;fill-opacity:1;" d="M 187.300781 185.378906 L 210.542969 173.78125 L 208.671875 172.847656 L 185.417969 184.441406 Z M 187.300781 185.378906 "/><path style=" stroke:none;fill-rule:nonzero;fill:#ffffff;fill-opacity:1;" d="M 187.300781 210.335938 L 210.542969 198.742188 L 208.671875 197.804688 L 185.417969 209.402344 Z M 187.300781 210.335938 "/><path style=" stroke:none;fill-rule:nonzero;fill:#000000;fill-opacity:1;" d="M 137.382812 187.375 L 112.417969 199.855469 "/><path style=" stroke:none;fill-rule:nonzero;fill:#cb6ce6;fill-opacity:1;" d="M 137.382812 187.375 L 87.457031 212.332031 L 137.851562 237.53125 L 187.78125 212.570312 Z M 137.382812 187.375 "/><path style=" stroke:none;fill-rule:nonzero;fill:#000000;fill-opacity:1;" d="M 114.273438 198.90625 L 164.1875 223.863281 L 162.316406 224.800781 L 112.390625 199.84375 Z M 114.273438 198.90625 "/><path style=" stroke:none;fill-rule:nonzero;fill:#000000;fill-opacity:1;" d="M 89.3125 211.386719 L 139.230469 236.34375 L 137.359375 237.28125 L 87.433594 212.320312 L 89.316406 211.386719 Z M 89.3125 211.386719 "/><path style=" stroke:none;fill-rule:nonzero;fill:#000000;fill-opacity:1;" d="M 137.382812 212.332031 L 162.335938 199.855469 L 160.464844 198.917969 L 135.5 211.398438 Z M 137.382812 212.332031 "/><path style=" stroke:none;fill-rule:nonzero;fill:#000000;fill-opacity:1;" d="M 137.382812 237.292969 L 162.335938 224.8125 L 160.464844 223.875 L 135.5 236.355469 Z M 137.382812 237.292969 "/><path style=" stroke:none;fill-rule:nonzero;fill:#ffffff;fill-opacity:1;" d="M 137.382812 210.335938 L 160.625 198.742188 L 158.753906 197.804688 L 135.5 209.402344 Z M 137.382812 210.335938 "/><path style=" stroke:none;fill-rule:nonzero;fill:#ffffff;fill-opacity:1;" d="M 137.382812 235.296875 L 160.625 223.699219 L 158.753906 222.761719 L 135.5 234.359375 Z M 137.382812 235.296875 "/><path style=" stroke:none;fill-rule:nonzero;fill:#000000;fill-opacity:1;" d="M 237.242188 137.457031 L 212.277344 149.9375 "/><path style=" stroke:none;fill-rule:nonzero;fill:#cb6ce6;fill-opacity:1;" d="M 237.242188 137.457031 L 187.316406 162.417969 L 237.710938 187.613281 L 287.636719 162.65625 Z M 237.242188 137.457031 "/><path style=" stroke:none;fill-rule:nonzero;fill:#000000;fill-opacity:1;" d="M 214.128906 148.988281 L 264.046875 173.949219 L 262.175781 174.882812 L 212.25 149.925781 L 214.132812 148.988281 Z M 214.128906 148.988281 "/><path style=" stroke:none;fill-rule:nonzero;fill:#000000;fill-opacity:1;" d="M 189.171875 161.46875 L 239.089844 186.425781 L 237.21875 187.363281 L 187.289062 162.40625 Z M 189.171875 161.46875 "/><path style=" stroke:none;fill-rule:nonzero;fill:#000000;fill-opacity:1;" d="M 237.242188 162.417969 L 262.195312 149.9375 L 260.324219 149 L 235.359375 161.480469 Z M 237.242188 162.417969 "/><path style=" stroke:none;fill-rule:nonzero;fill:#000000;fill-opacity:1;" d="M 237.242188 187.375 L 262.195312 174.894531 L 260.324219 173.960938 L 235.359375 186.4375 Z M 237.242188 187.375 "/><path style=" stroke:none;fill-rule:nonzero;fill:#ffffff;fill-opacity:1;" d="M 237.242188 160.421875 L 260.484375 148.824219 L 258.613281 147.886719 L 235.359375 159.484375 Z M 237.242188 160.421875 "/><path style=" stroke:none;fill-rule:nonzero;fill:#ffffff;fill-opacity:1;" d="M 237.242188 185.378906 L 260.484375 173.78125 L 258.613281 172.847656 L 235.359375 184.441406 Z M 237.242188 185.378906 "/><path style=" stroke:none;fill-rule:nonzero;fill:#000000;fill-opacity:1;" d="M 137.382812 187.375 L 112.417969 199.855469 "/><path style=" stroke:none;fill-rule:nonzero;fill:#cb6ce6;fill-opacity:1;" d="M 137.382812 187.375 L 87.457031 212.332031 L 137.851562 237.53125 L 187.78125 212.570312 Z M 137.382812 187.375 "/><path style=" stroke:none;fill-rule:nonzero;fill:#000000;fill-opacity:1;" d="M 114.273438 198.90625 L 164.1875 223.863281 L 162.316406 224.800781 L 112.390625 199.84375 Z M 114.273438 198.90625 "/><path style=" stroke:none;fill-rule:nonzero;fill:#000000;fill-opacity:1;" d="M 89.3125 211.386719 L 139.230469 236.34375 L 137.359375 237.28125 L 87.433594 212.320312 L 89.316406 211.386719 Z M 89.3125 211.386719 "/><path style=" stroke:none;fill-rule:nonzero;fill:#000000;fill-opacity:1;" d="M 137.382812 212.332031 L 162.335938 199.855469 L 160.464844 198.917969 L 135.5 211.398438 Z M 137.382812 212.332031 "/><path style=" stroke:none;fill-rule:nonzero;fill:#000000;fill-opacity:1;" d="M 137.382812 237.292969 L 162.335938 224.8125 L 160.464844 223.875 L 135.5 236.355469 Z M 137.382812 237.292969 "/><path style=" stroke:none;fill-rule:nonzero;fill:#ffffff;fill-opacity:1;" d="M 137.382812 210.335938 L 160.625 198.742188 L 158.753906 197.804688 L 135.5 209.402344 Z M 137.382812 210.335938 "/><path style=" stroke:none;fill-rule:nonzero;fill:#ffffff;fill-opacity:1;" d="M 137.382812 235.296875 L 160.625 223.699219 L 158.753906 222.761719 L 135.5 234.359375 Z M 137.382812 235.296875 "/><path style=" stroke:none;fill-rule:nonzero;fill:#000000;fill-opacity:1;" d="M 237.242188 187.375 L 212.277344 199.855469 "/><path style=" stroke:none;fill-rule:nonzero;fill:#cb6ce6;fill-opacity:1;" d="M 237.242188 187.375 L 187.316406 212.332031 L 237.710938 237.53125 L 287.636719 212.570312 Z M 237.242188 187.375 "/><path style=" stroke:none;fill-rule:nonzero;fill:#000000;fill-opacity:1;" d="M 214.128906 198.90625 L 264.046875 223.863281 L 262.175781 224.800781 L 212.25 199.84375 L 214.132812 198.90625 Z M 214.128906 198.90625 "/><path style=" stroke:none;fill-rule:nonzero;fill:#000000;fill-opacity:1;" d="M 189.171875 211.386719 L 239.089844 236.34375 L 237.21875 237.28125 L 187.289062 212.320312 Z M 189.171875 211.386719 "/><path style=" stroke:none;fill-rule:nonzero;fill:#000000;fill-opacity:1;" d="M 237.242188 212.332031 L 262.195312 199.855469 L 260.324219 198.917969 L 235.359375 211.398438 Z M 237.242188 212.332031 "/><path style=" stroke:none;fill-rule:nonzero;fill:#000000;fill-opacity:1;" d="M 237.242188 237.292969 L 262.195312 224.8125 L 260.324219 223.875 L 235.359375 236.355469 Z M 237.242188 237.292969 "/><path style=" stroke:none;fill-rule:nonzero;fill:#ffffff;fill-opacity:1;" d="M 237.242188 210.335938 L 260.484375 198.742188 L 258.613281 197.804688 L 235.359375 209.402344 Z M 237.242188 210.335938 "/><path style=" stroke:none;fill-rule:nonzero;fill:#ffffff;fill-opacity:1;" d="M 237.242188 235.296875 L 260.484375 223.699219 L 258.613281 222.761719 L 235.359375 234.359375 Z M 237.242188 235.296875 "/><path style=" stroke:none;fill-rule:nonzero;fill:#000000;fill-opacity:1;" d="M 287.160156 162.417969 L 262.195312 174.894531 "/><g clip-rule="nonzero" clip-path="url(#69b66d7c45)"><path style=" stroke:none;fill-rule:nonzero;fill:#cb6ce6;fill-opacity:1;" d="M 287.160156 162.417969 L 237.230469 187.375 L 287.628906 212.570312 L 337.554688 187.613281 Z M 287.160156 162.417969 "/></g><path style=" stroke:none;fill-rule:nonzero;fill:#000000;fill-opacity:1;" d="M 264.046875 173.949219 L 313.964844 198.90625 L 312.09375 199.84375 L 262.164062 174.882812 Z M 264.046875 173.949219 "/><path style=" stroke:none;fill-rule:nonzero;fill:#000000;fill-opacity:1;" d="M 239.089844 186.425781 L 289.003906 211.386719 L 287.132812 212.320312 L 237.207031 187.363281 Z M 239.089844 186.425781 "/><path style=" stroke:none;fill-rule:nonzero;fill:#000000;fill-opacity:1;" d="M 287.160156 187.375 L 312.113281 174.894531 L 310.238281 173.960938 L 285.277344 186.4375 Z M 287.160156 187.375 "/><path style=" stroke:none;fill-rule:nonzero;fill:#000000;fill-opacity:1;" d="M 287.160156 212.332031 L 312.113281 199.855469 L 310.238281 198.917969 L 285.277344 211.398438 Z M 287.160156 212.332031 "/><path style=" stroke:none;fill-rule:nonzero;fill:#ffffff;fill-opacity:1;" d="M 287.160156 185.378906 L 310.402344 173.78125 L 308.53125 172.847656 L 285.277344 184.441406 Z M 287.160156 185.378906 "/><path style=" stroke:none;fill-rule:nonzero;fill:#ffffff;fill-opacity:1;" d="M 287.160156 210.335938 L 310.402344 198.742188 L 308.53125 197.804688 L 285.277344 209.402344 Z M 287.160156 210.335938 "/><path style=" stroke:none;fill-rule:nonzero;fill:#000000;fill-opacity:1;" d="M 187.300781 212.359375 L 162.335938 224.835938 "/><g clip-rule="nonzero" clip-path="url(#9553f355d9)"><path style=" stroke:none;fill-rule:nonzero;fill:#cb6ce6;fill-opacity:1;" d="M 187.300781 212.359375 L 137.375 237.316406 L 187.769531 262.515625 L 237.695312 237.554688 Z M 187.300781 212.359375 "/></g><path style=" stroke:none;fill-rule:nonzero;fill:#000000;fill-opacity:1;" d="M 164.1875 223.890625 L 214.105469 248.847656 L 212.234375 249.785156 L 162.308594 224.824219 L 164.191406 223.890625 Z M 164.1875 223.890625 "/><g clip-rule="nonzero" clip-path="url(#f28925ed00)"><path style=" stroke:none;fill-rule:nonzero;fill:#000000;fill-opacity:1;" d="M 139.230469 236.367188 L 189.148438 261.328125 L 187.277344 262.261719 L 137.347656 237.304688 Z M 139.230469 236.367188 "/></g><path style=" stroke:none;fill-rule:nonzero;fill:#000000;fill-opacity:1;" d="M 187.300781 237.316406 L 212.253906 224.835938 L 210.382812 223.902344 L 185.417969 236.382812 Z M 187.300781 237.316406 "/><g clip-rule="nonzero" clip-path="url(#0071516903)"><path style=" stroke:none;fill-rule:nonzero;fill:#000000;fill-opacity:1;" d="M 187.300781 262.273438 L 212.253906 249.796875 L 210.382812 248.859375 L 185.417969 261.339844 Z M 187.300781 262.273438 "/></g><path style=" stroke:none;fill-rule:nonzero;fill:#ffffff;fill-opacity:1;" d="M 187.300781 235.320312 L 210.542969 223.722656 L 208.671875 222.789062 L 185.417969 234.382812 Z M 187.300781 235.320312 "/><path style=" stroke:none;fill-rule:nonzero;fill:#ffffff;fill-opacity:1;" d="M 187.300781 260.277344 L 210.542969 248.683594 L 208.671875 247.746094 L 185.417969 259.34375 Z M 187.300781 260.277344 "/></g></svg>